<svg width="32" height="33" viewBox="0 0 32 33" fill="none" xmlns="http://www.w3.org/2000/svg">
<g filter="url(#filter0_d_1_44)">
<rect x="2" width="30" height="30" rx="15" fill="white" shape-rendering="crispEdges"/>
<rect x="2.75" y="0.75" width="28.5" height="28.5" rx="14.25" stroke="black" stroke-width="1.5" shape-rendering="crispEdges"/>
<path d="M8.25584 14.3873C8.2946 14.3681 8.33337 14.3498 8.37115 14.3325C9.02802 14.0302 9.6936 13.7472 10.3582 13.4642C10.3941 13.4642 10.4541 13.4228 10.488 13.4094C10.5394 13.3872 10.5907 13.366 10.6421 13.3439C10.7409 13.3016 10.8397 13.2602 10.9376 13.2178C11.1352 13.1341 11.3319 13.0503 11.5295 12.9666L12.7125 12.4631C13.5011 12.1282 14.2907 11.7922 15.0793 11.4573C15.8679 11.1223 16.6575 10.7863 17.4462 10.4514C18.2348 10.1164 19.0244 9.78045 19.813 9.44547C20.6016 9.1105 21.3912 8.77456 22.1799 8.43958C22.3552 8.3645 22.5451 8.25284 22.7331 8.22011C22.891 8.1922 23.045 8.1383 23.2039 8.10846C23.5052 8.05166 23.8375 8.02856 24.1262 8.15274C24.226 8.19605 24.318 8.25669 24.3946 8.33274C24.7608 8.69274 24.7094 9.28376 24.6319 9.79007C24.0923 13.3189 23.5527 16.8486 23.0121 20.3774C22.9384 20.8616 22.8377 21.393 22.4531 21.6991C22.1275 21.958 21.6644 21.9869 21.2624 21.8771C20.8603 21.7664 20.5057 21.5345 20.1579 21.3063C18.7153 20.3572 17.2718 19.4081 15.8292 18.459C15.4862 18.2338 15.1045 17.9392 15.1084 17.5301C15.1103 17.2837 15.2585 17.0643 15.4097 16.8689C16.6633 15.244 18.4721 14.1274 19.8178 12.5777C20.0077 12.3592 20.1569 11.9645 19.8963 11.8384C19.7413 11.7634 19.563 11.8654 19.4216 11.9626C17.6428 13.1899 15.865 14.4181 14.0863 15.6454C13.5059 16.0458 12.8975 16.4578 12.198 16.556C11.5722 16.6446 10.9424 16.4713 10.3369 16.2942C9.82924 16.146 9.32253 15.9939 8.81777 15.837C8.5494 15.7542 8.27232 15.6647 8.06499 15.477C7.85766 15.2893 7.73851 14.9735 7.86349 14.7233C7.94196 14.5664 8.09407 14.4672 8.25393 14.3864L8.25584 14.3873Z" fill="black"/>
</g>
<defs>
<filter id="filter0_d_1_44" x="0.5" y="0" width="31.5" height="32.25" filterUnits="userSpaceOnUse" color-interpolation-filters="sRGB">
<feFlood flood-opacity="0" result="BackgroundImageFix"/>
<feColorMatrix in="SourceAlpha" type="matrix" values="0 0 0 0 0 0 0 0 0 0 0 0 0 0 0 0 0 0 127 0" result="hardAlpha"/>
<feOffset dx="-1.5" dy="2.25"/>
<feComposite in2="hardAlpha" operator="out"/>
<feColorMatrix type="matrix" values="0 0 0 0 0 0 0 0 0 0 0 0 0 0 0 0 0 0 1 0"/>
<feBlend mode="normal" in2="BackgroundImageFix" result="effect1_dropShadow_1_44"/>
<feBlend mode="normal" in="SourceGraphic" in2="effect1_dropShadow_1_44" result="shape"/>
</filter>
</defs>
</svg>
