<svg width="21" height="24" viewBox="0 0 21 24" fill="none" xmlns="http://www.w3.org/2000/svg">
<g clip-path="url(#clip0_3_779)">
<path d="M2.98763 1.74185C1.41194 1.74185 0.130859 3.02294 0.130859 4.59862V18.8825C0.130859 20.4582 1.41194 21.7392 2.98763 21.7392H17.2715C18.8472 21.7392 20.1283 20.4582 20.1283 18.8825V4.59862C20.1283 3.02294 18.8472 1.74185 17.2715 1.74185H2.98763ZM16.2493 5.49136L11.616 10.7853L17.0662 17.9897H12.7989L9.46 13.6198L5.63461 17.9897H3.51435L8.46906 12.3253L3.24206 5.49136H7.61649L10.6384 9.48638L14.129 5.49136H16.2493ZM14.562 16.722L6.97818 6.6921H5.71495L13.3836 16.722H14.5576H14.562Z" fill="black"/>
</g>
<defs>
<clipPath id="clip0_3_779">
<rect width="20" height="22.8542" fill="white" transform="translate(0.129639 0.313477)"/>
</clipPath>
</defs>
</svg>
