<svg width="27" height="27" viewBox="0 0 27 27" fill="none" xmlns="http://www.w3.org/2000/svg">
<path d="M13.1297 2.35596C7.08999 2.35596 2.18823 7.25772 2.18823 13.2974C2.18823 19.3371 7.08999 24.2388 13.1297 24.2388C19.1693 24.2388 24.0711 19.3371 24.0711 13.2974C24.0711 7.25772 19.1693 2.35596 13.1297 2.35596ZM18.2065 9.79613C18.0424 11.5249 17.3312 15.7264 16.9701 17.663C16.8169 18.4836 16.5106 18.7572 16.2261 18.79C15.5915 18.8447 15.1101 18.3742 14.4973 17.9694C13.5345 17.3348 12.9874 16.9409 12.0574 16.3282C10.9742 15.617 11.6745 15.2231 12.2981 14.5885C12.4622 14.4244 15.2632 11.875 15.318 11.6452C15.3256 11.6104 15.3245 11.5743 15.315 11.54C15.3055 11.5057 15.2877 11.4742 15.2632 11.4483C15.1976 11.3936 15.1101 11.4155 15.0335 11.4264C14.935 11.4483 13.4032 12.4658 10.4162 14.4791C9.97853 14.7745 9.58464 14.9277 9.23451 14.9167C8.84062 14.9058 8.09661 14.6979 7.53859 14.5119C6.84928 14.2931 6.31315 14.1727 6.35692 13.7898C6.3788 13.5928 6.65234 13.3959 7.16658 13.188C10.3615 11.7984 12.4841 10.8793 13.5454 10.4417C16.5872 9.17247 17.2108 8.95364 17.6266 8.95364C17.7141 8.95364 17.922 8.97552 18.0533 9.08494C18.1627 9.17247 18.1955 9.29283 18.2065 9.38036C18.1955 9.44601 18.2174 9.64295 18.2065 9.79613Z" fill="black"/>
</svg>
