<svg width="27" height="27" viewBox="0 0 27 27" fill="none" xmlns="http://www.w3.org/2000/svg">
<path d="M14.2546 2.87482C15.4855 2.8781 16.1102 2.88466 16.6497 2.89998L16.8619 2.90764C17.107 2.91639 17.3488 2.92734 17.641 2.94047C18.8051 2.99517 19.5995 3.17899 20.2964 3.44924C21.0186 3.72715 21.6269 4.10354 22.2353 4.71079C22.7918 5.25757 23.2224 5.91924 23.4968 6.64961C23.7671 7.34658 23.9509 8.14093 24.0056 9.30619C24.0187 9.59723 24.0297 9.83904 24.0384 10.0852L24.045 10.2975C24.0614 10.8358 24.0679 11.4606 24.0701 12.6915L24.0712 13.5077V14.941C24.0739 15.7391 24.0655 16.5372 24.0461 17.335L24.0395 17.5473C24.0307 17.7935 24.0198 18.0353 24.0067 18.3263C23.952 19.4916 23.766 20.2848 23.4968 20.9829C23.2224 21.7133 22.7918 22.3749 22.2353 22.9217C21.6885 23.4783 21.0268 23.9088 20.2964 24.1833C19.5995 24.4535 18.8051 24.6373 17.641 24.692L16.8619 24.7249L16.6497 24.7314C16.1102 24.7467 15.4855 24.7544 14.2546 24.7566L13.4383 24.7577H12.0061C11.2077 24.7605 10.4092 24.7521 9.61103 24.7325L9.39877 24.726C9.13903 24.7161 8.87935 24.7048 8.61974 24.692C7.45557 24.6373 6.66122 24.4535 5.96316 24.1833C5.23318 23.9087 4.57189 23.4782 4.02543 22.9217C3.46845 22.375 3.03754 21.7134 2.76279 20.9829C2.49254 20.2859 2.30872 19.4916 2.25402 18.3263L2.22119 17.5473L2.21572 17.335C2.19555 16.5372 2.18643 15.7391 2.18837 14.941V12.6915C2.18534 11.8934 2.19336 11.0953 2.21244 10.2975L2.2201 10.0852C2.22885 9.83904 2.23979 9.59723 2.25292 9.30619C2.30763 8.14093 2.49144 7.34767 2.7617 6.64961C3.03709 5.91894 3.46876 5.25724 4.02653 4.71079C4.57267 4.15447 5.23357 3.72395 5.96316 3.44924C6.66122 3.17899 7.45448 2.99517 8.61974 2.94047C8.91078 2.92734 9.15368 2.91639 9.39877 2.90764L9.61103 2.90108C10.4089 2.88164 11.2069 2.87325 12.005 2.87591L14.2546 2.87482ZM13.1298 8.34553C11.6789 8.34553 10.2874 8.92191 9.26142 9.94787C8.23546 10.9738 7.65908 12.3653 7.65908 13.8162C7.65908 15.2672 8.23546 16.6587 9.26142 17.6846C10.2874 18.7106 11.6789 19.287 13.1298 19.287C14.5807 19.287 15.9722 18.7106 16.9982 17.6846C18.0241 16.6587 18.6005 15.2672 18.6005 13.8162C18.6005 12.3653 18.0241 10.9738 16.9982 9.94787C15.9722 8.92191 14.5807 8.34553 13.1298 8.34553ZM13.1298 10.5338C13.5609 10.5337 13.9877 10.6186 14.386 10.7835C14.7842 10.9484 15.1461 11.1901 15.451 11.4948C15.7558 11.7996 15.9977 12.1614 16.1627 12.5596C16.3277 12.9578 16.4127 13.3846 16.4128 13.8157C16.4128 14.2468 16.328 14.6736 16.1631 15.0719C15.9982 15.4701 15.7565 15.832 15.4518 16.1369C15.147 16.4417 14.7852 16.6836 14.387 16.8486C13.9888 17.0136 13.5619 17.0986 13.1309 17.0987C12.2603 17.0987 11.4254 16.7529 10.8099 16.1373C10.1943 15.5217 9.84846 14.6868 9.84846 13.8162C9.84846 12.9457 10.1943 12.1108 10.8099 11.4952C11.4254 10.8796 12.2603 10.5338 13.1309 10.5338M18.8751 6.70432C18.5124 6.70432 18.1645 6.84841 17.9081 7.1049C17.6516 7.36139 17.5075 7.70927 17.5075 8.072C17.5075 8.43473 17.6516 8.7826 17.9081 9.03909C18.1645 9.29558 18.5124 9.43968 18.8751 9.43968C19.2379 9.43968 19.5858 9.29558 19.8422 9.03909C20.0987 8.7826 20.2428 8.43473 20.2428 8.072C20.2428 7.70927 20.0987 7.36139 19.8422 7.1049C19.5858 6.84841 19.2379 6.70432 18.8751 6.70432Z" fill="black"/>
</svg>
