<svg width="27" height="27" viewBox="0 0 27 27" fill="none" xmlns="http://www.w3.org/2000/svg">
<path d="M13.1297 2.61539C10.9657 2.61539 8.85024 3.25709 7.05094 4.45935C5.25163 5.66161 3.84924 7.37043 3.0211 9.36971C2.19297 11.369 1.9763 13.569 2.39847 15.6914C2.82065 17.8138 3.86272 19.7634 5.39291 21.2936C6.9231 22.8238 8.87267 23.8658 10.9951 24.288C13.1175 24.7102 15.3175 24.4935 17.3168 23.6654C19.3161 22.8373 21.0249 21.4349 22.2271 19.6356C23.4294 17.8362 24.0711 15.7208 24.0711 13.5568C24.0682 10.6559 22.9145 7.87455 20.8632 5.82326C18.8119 3.77197 16.0306 2.61828 13.1297 2.61539ZM19.6278 11.0545V11.7613C19.6278 11.8154 19.617 11.869 19.596 11.9188C19.5749 11.9687 19.5441 12.0138 19.5054 12.0515C19.4666 12.0893 19.4207 12.1189 19.3703 12.1385C19.3199 12.1582 19.2661 12.1676 19.212 12.1662C18.0568 12.0845 16.9516 11.6627 16.0357 10.9539V16.127C16.0355 16.6995 15.9212 17.2662 15.6995 17.7941C15.4778 18.322 15.1532 18.8004 14.7446 19.2015C14.3327 19.6131 13.8428 19.9383 13.3036 20.1581C12.7643 20.3779 12.1867 20.4879 11.6044 20.4817C10.4336 20.48 9.30974 20.0205 8.473 19.2015C7.94058 18.6647 7.55708 17.9986 7.36025 17.2686C7.16341 16.5386 7.16002 15.77 7.35041 15.0383C7.52437 14.3358 7.87559 13.6903 8.37124 13.164C8.74087 12.7122 9.20681 12.3488 9.73497 12.1002C10.2631 11.8517 10.8402 11.7243 11.4239 11.7274H12.3211V13.5907C12.3215 13.6449 12.3104 13.6984 12.2884 13.7479C12.2665 13.7974 12.2342 13.8416 12.1939 13.8776C12.1535 13.9137 12.1059 13.9407 12.0542 13.9569C12.0026 13.973 11.9481 13.978 11.8944 13.9715C11.3735 13.815 10.8121 13.8669 10.3287 14.1163C9.84529 14.3656 9.47757 14.7929 9.30306 15.3081C9.12855 15.8232 9.16087 16.386 9.39323 16.8778C9.62558 17.3696 10.0398 17.752 10.5486 17.9443C10.844 18.1139 11.1744 18.2135 11.5136 18.2365C11.7762 18.2474 12.0388 18.2146 12.2883 18.1358C12.7047 17.9953 13.067 17.7284 13.3245 17.3722C13.582 17.016 13.722 16.5884 13.7249 16.1488V6.7228C13.7249 6.61852 13.7662 6.5185 13.8399 6.44466C13.9135 6.37083 14.0134 6.3292 14.1177 6.32891H15.6659C15.7665 6.32903 15.8632 6.36764 15.9363 6.43681C16.0093 6.50598 16.0531 6.60048 16.0587 6.70092C16.1151 7.18369 16.2685 7.65009 16.5095 8.07217C16.7505 8.49425 17.0743 8.86333 17.4614 9.15727C17.9845 9.54995 18.6058 9.79073 19.2569 9.85314C19.3544 9.86149 19.4456 9.90487 19.5136 9.97528C19.5816 10.0457 19.6218 10.1383 19.6267 10.2361L19.6278 11.0545Z" fill="black"/>
</svg>
