<svg width="27" height="27" viewBox="0 0 27 27" fill="none" xmlns="http://www.w3.org/2000/svg">
<g clip-path="url(#clip0_3_777)">
<path d="M24.0711 26.3135L18.3268 20.8427L19.0162 23.031H4.92359C4.19813 23.031 3.50238 22.7428 2.9894 22.2299C2.47642 21.7169 2.18823 21.0211 2.18823 20.2957V3.88352C2.18823 3.15806 2.47642 2.46231 2.9894 1.94933C3.50238 1.43635 4.19813 1.14816 4.92359 1.14816H21.3357C22.0612 1.14816 22.757 1.43635 23.2699 1.94933C23.7829 2.46231 24.0711 3.15806 24.0711 3.88352V26.3135ZM13.1297 7.49419C10.1974 7.49419 8.14037 8.75246 8.14037 8.75246C9.26734 7.74585 11.2368 7.16595 11.2368 7.16595L11.0508 6.97995C9.20169 7.01277 7.52765 8.29292 7.52765 8.29292C5.64573 12.2209 5.76608 15.6127 5.76608 15.6127C7.29788 17.5931 9.5737 17.4509 9.5737 17.4509L10.3505 16.4662C8.98286 16.1707 8.11849 14.9563 8.11849 14.9563C8.11849 14.9563 10.1755 16.3568 13.1297 16.3568C16.0839 16.3568 18.1408 14.9563 18.1408 14.9563C18.1408 14.9563 17.2765 16.1707 15.9088 16.4662L16.6856 17.4509C16.6856 17.4509 18.9614 17.5931 20.4932 15.6127C20.4932 15.6127 20.6136 12.2209 18.7317 8.29292C18.7317 8.29292 17.0576 7.01277 15.2085 6.97995L15.0225 7.16595C15.0225 7.16595 16.992 7.74585 18.119 8.75246C18.119 8.75246 16.062 7.49419 13.1297 7.49419ZM10.8648 11.641C11.576 11.641 12.1559 12.2647 12.1449 13.0306C12.1449 13.7855 11.576 14.4201 10.8648 14.4201C10.1645 14.4201 9.59558 13.7855 9.59558 13.0306C9.59558 12.2647 10.1536 11.641 10.8648 11.641ZM15.4274 11.641C16.1386 11.641 16.7075 12.2647 16.7075 13.0306C16.7075 13.7855 16.1386 14.4201 15.4274 14.4201C14.7271 14.4201 14.1582 13.7855 14.1582 13.0306C14.1582 12.2647 14.7162 11.641 15.4274 11.641Z" fill="black"/>
</g>
<defs>
<clipPath id="clip0_3_777">
<rect width="26.2594" height="26.2594" fill="white" transform="translate(0 0.0540466)"/>
</clipPath>
</defs>
</svg>
