<svg width="50" height="51" viewBox="0 0 50 51" fill="none" xmlns="http://www.w3.org/2000/svg">
<path d="M26.5147 8.66549C26.7027 8.46659 26.8496 8.23262 26.9472 7.97694C27.0447 7.72125 27.0909 7.44886 27.0832 7.17532C27.0754 6.90177 27.0139 6.63243 26.9021 6.38267C26.7902 6.1329 26.6303 5.90761 26.4314 5.71966C26.2325 5.53171 25.9985 5.38477 25.7428 5.28723C25.4872 5.1897 25.2148 5.14349 24.9412 5.15122C24.6677 5.15896 24.3983 5.2205 24.1486 5.33233C23.8988 5.44416 23.6735 5.60409 23.4856 5.80299L5.77723 24.553C5.41153 24.9398 5.20776 25.4519 5.20776 25.9842C5.20776 26.5166 5.41153 27.0287 5.77723 27.4155L23.4856 46.1676C23.6723 46.3708 23.8975 46.535 24.1482 46.6504C24.3989 46.7659 24.67 46.8304 24.9458 46.8402C25.2216 46.85 25.4967 46.8049 25.7549 46.7075C26.0131 46.6101 26.2495 46.4624 26.4501 46.2729C26.6508 46.0834 26.8118 45.8559 26.9238 45.6037C27.0358 45.3515 27.0966 45.0795 27.1026 44.8035C27.1086 44.5276 27.0598 44.2532 26.9588 43.9963C26.8579 43.7395 26.707 43.5052 26.5147 43.3072L10.1564 25.9842L26.5147 8.66549Z" fill="black"/>
</svg>
